<svg width="48" height="48" viewBox="0 0 48 48" fill="none" xmlns="http://www.w3.org/2000/svg">
<path d="M1.71429 15.4323V15.503C1.71175 15.9447 1.55226 16.3711 1.26429 16.7061V16.7114C0.685714 17.3949 0 18.6183 0 20.5745C0 22.3475 0.567857 23.5988 1.25143 24.4216C1.55134 24.7865 1.71498 25.2444 1.71429 25.7168C1.71429 26.626 2.07551 27.498 2.71849 28.1409C3.36147 28.7838 4.23354 29.1449 5.14286 29.1449H6C6.22733 29.1449 6.44535 29.0547 6.60609 28.8939C6.76684 28.7332 6.85714 28.5152 6.85714 28.2879V12.8611C6.85714 12.6338 6.76684 12.4159 6.60609 12.2551C6.44535 12.0944 6.22733 12.0041 6 12.0041H5.14286C4.23354 12.0041 3.36147 12.3653 2.71849 13.0082C2.07551 13.6511 1.71429 14.5231 1.71429 15.4323ZM45.0193 16.5625L44.9196 16.5443C44.8217 16.5256 44.7333 16.4733 44.6697 16.3965C44.6062 16.3196 44.5714 16.223 44.5714 16.1233V3.21942C44.5714 1.86529 43.6725 0.648295 42.3332 0.185492C41.0561 -0.254814 39.7254 0.104072 38.9389 1.09931C37.2659 3.09689 35.4268 4.94935 33.4414 6.63688C30.9096 8.77948 28.4871 10.3061 26.2629 11.1696C26.1007 11.2314 25.9611 11.341 25.8625 11.4839C25.764 11.6268 25.7112 11.7963 25.7111 11.9698V28.6093C25.7113 28.9444 25.8098 29.272 25.9944 29.5517C26.1789 29.8314 26.4413 30.0509 26.7493 30.183C28.8214 31.0711 31.0607 32.5217 33.3921 34.4982C35.3925 36.201 37.2449 38.0704 38.9293 40.0862C39.1991 40.4247 39.5436 40.6962 39.9358 40.8797C40.3279 41.0631 40.7572 41.1534 41.19 41.1435C41.5704 41.1419 41.9481 41.0789 42.3086 40.9571C43.6832 40.5008 44.5714 39.3277 44.5714 37.9725V25.0236C44.5715 24.9225 44.6074 24.8247 44.6727 24.7474C44.738 24.6702 44.8285 24.6185 44.9282 24.6016L45.0193 24.5866C46.05 24.3069 48 23.1103 48 20.5745C48 18.0388 46.05 16.8421 45.0193 16.5625ZM22.2857 30.859V12.8611C22.2857 12.6338 22.1954 12.4159 22.0347 12.2551C21.8739 12.0944 21.6559 12.0041 21.4286 12.0041H11.1429C10.9155 12.0041 10.6975 12.0944 10.5368 12.2551C10.376 12.4159 10.2857 12.6338 10.2857 12.8611V45.4287C10.2857 46.1107 10.5566 46.7646 11.0389 47.2468C11.5211 47.729 12.1752 47.9999 12.8571 47.9999H18.4768C19.011 48.0043 19.5391 47.8865 20.0207 47.6553C20.5022 47.4241 20.9245 47.0857 21.255 46.6661C21.5939 46.2317 21.8218 45.7213 21.9191 45.1791C22.0164 44.6368 21.98 44.079 21.8132 43.554C21.6396 42.999 21.4243 42.3755 21.195 41.7124C20.3475 39.2591 19.23 37.7411 18.9321 34.2861C19.8282 34.2665 20.681 33.8969 21.3078 33.2563C21.9346 32.6157 22.2857 31.7552 22.2857 30.859Z" fill="#00A9A5"/>
</svg>
