<svg width="23" height="22" viewBox="0 0 23 22" fill="none" xmlns="http://www.w3.org/2000/svg">
<path d="M22.75 9.82584H4.46629L15.4096 0.432584C15.5846 0.28118 15.4784 0 15.2472 0H12.4816C12.3598 0 12.2441 0.0432582 12.1535 0.120505L0.34456 10.2522C0.236404 10.3449 0.149663 10.4596 0.0902148 10.5883C0.0307667 10.717 0 10.8569 0 10.9985C0 11.14 0.0307667 11.2799 0.0902148 11.4086C0.149663 11.5374 0.236404 11.652 0.34456 11.7447L12.2223 21.9382C12.2691 21.9784 12.3254 22 12.3848 22H15.244C15.4753 22 15.5815 21.7157 15.4065 21.5674L4.46629 12.1742H22.75C22.8875 12.1742 23 12.0629 23 11.927V10.073C23 9.93708 22.8875 9.82584 22.75 9.82584Z" fill="black"/>
</svg>
