<svg width="23" height="22" viewBox="0 0 23 22" fill="none" xmlns="http://www.w3.org/2000/svg">
<path d="M5.75 2.75C5.75 3.47935 5.4471 4.17882 4.90793 4.69454C4.36876 5.21027 3.6375 5.5 2.875 5.5C2.1125 5.5 1.38123 5.21027 0.842068 4.69454C0.302901 4.17882 0 3.47935 0 2.75C0 2.02065 0.302901 1.32118 0.842068 0.805456C1.38123 0.289731 2.1125 0 2.875 0C3.6375 0 4.36876 0.289731 4.90793 0.805456C5.4471 1.32118 5.75 2.02065 5.75 2.75ZM5.75 11C5.75 11.7293 5.4471 12.4288 4.90793 12.9445C4.36876 13.4603 3.6375 13.75 2.875 13.75C2.1125 13.75 1.38123 13.4603 0.842068 12.9445C0.302901 12.4288 0 11.7293 0 11C0 10.2707 0.302901 9.57118 0.842068 9.05546C1.38123 8.53973 2.1125 8.25 2.875 8.25C3.6375 8.25 4.36876 8.53973 4.90793 9.05546C5.4471 9.57118 5.75 10.2707 5.75 11ZM2.875 22C3.6375 22 4.36876 21.7103 4.90793 21.1945C5.4471 20.6788 5.75 19.9793 5.75 19.25C5.75 18.5207 5.4471 17.8212 4.90793 17.3055C4.36876 16.7897 3.6375 16.5 2.875 16.5C2.1125 16.5 1.38123 16.7897 0.842068 17.3055C0.302901 17.8212 0 18.5207 0 19.25C0 19.9793 0.302901 20.6788 0.842068 21.1945C1.38123 21.7103 2.1125 22 2.875 22ZM14.375 2.75C14.375 3.47935 14.0721 4.17882 13.5329 4.69454C12.9938 5.21027 12.2625 5.5 11.5 5.5C10.7375 5.5 10.0062 5.21027 9.46707 4.69454C8.9279 4.17882 8.625 3.47935 8.625 2.75C8.625 2.02065 8.9279 1.32118 9.46707 0.805456C10.0062 0.289731 10.7375 0 11.5 0C12.2625 0 12.9938 0.289731 13.5329 0.805456C14.0721 1.32118 14.375 2.02065 14.375 2.75ZM11.5 13.75C12.2625 13.75 12.9938 13.4603 13.5329 12.9445C14.0721 12.4288 14.375 11.7293 14.375 11C14.375 10.2707 14.0721 9.57118 13.5329 9.05546C12.9938 8.53973 12.2625 8.25 11.5 8.25C10.7375 8.25 10.0062 8.53973 9.46707 9.05546C8.9279 9.57118 8.625 10.2707 8.625 11C8.625 11.7293 8.9279 12.4288 9.46707 12.9445C10.0062 13.4603 10.7375 13.75 11.5 13.75ZM14.375 19.25C14.375 19.9793 14.0721 20.6788 13.5329 21.1945C12.9938 21.7103 12.2625 22 11.5 22C10.7375 22 10.0062 21.7103 9.46707 21.1945C8.9279 20.6788 8.625 19.9793 8.625 19.25C8.625 18.5207 8.9279 17.8212 9.46707 17.3055C10.0062 16.7897 10.7375 16.5 11.5 16.5C12.2625 16.5 12.9938 16.7897 13.5329 17.3055C14.0721 17.8212 14.375 18.5207 14.375 19.25ZM20.125 5.5C20.8875 5.5 21.6188 5.21027 22.1579 4.69454C22.6971 4.17882 23 3.47935 23 2.75C23 2.02065 22.6971 1.32118 22.1579 0.805456C21.6188 0.289731 20.8875 0 20.125 0C19.3625 0 18.6312 0.289731 18.0921 0.805456C17.5529 1.32118 17.25 2.02065 17.25 2.75C17.25 3.47935 17.5529 4.17882 18.0921 4.69454C18.6312 5.21027 19.3625 5.5 20.125 5.5ZM23 11C23 11.7293 22.6971 12.4288 22.1579 12.9445C21.6188 13.4603 20.8875 13.75 20.125 13.75C19.3625 13.75 18.6312 13.4603 18.0921 12.9445C17.5529 12.4288 17.25 11.7293 17.25 11C17.25 10.2707 17.5529 9.57118 18.0921 9.05546C18.6312 8.53973 19.3625 8.25 20.125 8.25C20.8875 8.25 21.6188 8.53973 22.1579 9.05546C22.6971 9.57118 23 10.2707 23 11ZM20.125 22C20.8875 22 21.6188 21.7103 22.1579 21.1945C22.6971 20.6788 23 19.9793 23 19.25C23 18.5207 22.6971 17.8212 22.1579 17.3055C21.6188 16.7897 20.8875 16.5 20.125 16.5C19.3625 16.5 18.6312 16.7897 18.0921 17.3055C17.5529 17.8212 17.25 18.5207 17.25 19.25C17.25 19.9793 17.5529 20.6788 18.0921 21.1945C18.6312 21.7103 19.3625 22 20.125 22Z" fill="black"/>
</svg>
