<svg width="23" height="22" viewBox="0 0 23 22" fill="none" xmlns="http://www.w3.org/2000/svg">
<path d="M22.6554 10.2522L10.8496 0.120505C10.759 0.0432582 10.6434 0 10.5215 0H7.75598C7.52473 0 7.41849 0.28427 7.59348 0.432584L18.5368 9.82584H0.249991C0.112496 9.82584 0 9.93708 0 10.073V11.927C0 12.0629 0.112496 12.1742 0.249991 12.1742H18.5337L7.59036 21.5674C7.41536 21.7188 7.52161 22 7.75285 22H10.6121C10.6715 22 10.7309 21.9784 10.7746 21.9382L22.6554 11.7478C22.7636 11.6547 22.8504 11.5399 22.9098 11.4109C22.9692 11.2819 23 11.1418 23 11C23 10.8582 22.9692 10.7181 22.9098 10.5891C22.8504 10.4601 22.7636 10.3453 22.6554 10.2522Z" fill="black"/>
</svg>
