<svg width="20" height="38" viewBox="0 0 20 38" fill="none" xmlns="http://www.w3.org/2000/svg">
<path d="M20 4.27745V0.401902C20 0.0659885 19.6765 -0.119516 19.458 0.0860428L0.516866 17.7391C0.355934 17.8884 0.225715 18.0796 0.136139 18.2982C0.0465641 18.5167 0 18.7567 0 19C0 19.2433 0.0465641 19.4833 0.136139 19.7018C0.225715 19.9204 0.355934 20.1116 0.516866 20.2609L19.458 37.914C19.6807 38.1195 20 37.934 20 37.5981V33.7226C20 33.4769 19.9034 33.2412 19.7437 33.0908L4.61769 19.0025L19.7437 4.90916C19.9034 4.75876 20 4.52311 20 4.27745Z" fill="white"/>
</svg>
